<svg id="Layer_1" data-name="Layer 1" xmlns="http://www.w3.org/2000/svg" viewBox="0 0 1190.55 322.88"><defs><style>.cls-1{fill:#de481e;}</style></defs><path class="cls-1" d="M751.73,251.13a21.87,21.87,0,0,1,6.7,3.64,25.54,25.54,0,0,1,5.16,5.65,26.33,26.33,0,0,1,3.36,7.4,31.56,31.56,0,0,1,1.18,8.75,30.56,30.56,0,0,1-1.85,10.81,24.11,24.11,0,0,1-5.11,8.37,22.75,22.75,0,0,1-7.8,5.31,25.18,25.18,0,0,1-9.83,1.9q-9.66,0-15.15-6.62h-.21v26.54H714.43V250.74h13.75v5.91h.21q5.76-6.78,15.56-6.78a24.16,24.16,0,0,1,7.78,1.26m-1.24,35.61a14.19,14.19,0,0,0,3.68-10.12q0-6.47-3.75-10.42a12.4,12.4,0,0,0-9.4-4,13.2,13.2,0,0,0-5.42,1.11,12.56,12.56,0,0,0-4.23,3,13.84,13.84,0,0,0-2.75,4.57,16,16,0,0,0-1,5.7,15,15,0,0,0,1.77,7.34,12.34,12.34,0,0,0,4.83,5,13.56,13.56,0,0,0,6.8,1.72,12.4,12.4,0,0,0,9.47-3.9m79.21-36v51.35H816.61v-6.21h-.26Q810.86,303,801,303a25.14,25.14,0,0,1-9.83-1.9,22.88,22.88,0,0,1-7.81-5.31,24.42,24.42,0,0,1-5.11-8.37,32.44,32.44,0,0,1,0-21.54,25.56,25.56,0,0,1,5.06-8.47,23.39,23.39,0,0,1,17.28-7.5,19.07,19.07,0,0,1,15.15,6.67h.2v-5.8Zm-16.94,36a14,14,0,0,0,3.75-10.12,14.87,14.87,0,0,0-3.67-10.27,11.9,11.9,0,0,0-9.27-4.11,12.46,12.46,0,0,0-9.42,4q-3.78,3.94-3.78,10.42A14.23,14.23,0,0,0,794,286.74a12.44,12.44,0,0,0,9.48,3.9,12.31,12.31,0,0,0,9.24-3.9m78.36-36H876.85l-11.76,31.79h-.16l-12.58-31.79H838l20.54,48.17-9.14,24h14.06l27.68-72.14Zm84.65,4.62q-4.75-5.49-13.38-5.49A23.86,23.86,0,0,0,952.25,252a20.72,20.72,0,0,0-7.72,6.14h-.16q-4.51-8.26-15.25-8.27a18.54,18.54,0,0,0-8.32,2,21.33,21.33,0,0,0-7,5.67h-.15v-6.78H899.85v51.35h13.77V276.42a19,19,0,0,1,1.43-7.73,10.8,10.8,0,0,1,3.86-4.85,9.81,9.81,0,0,1,5.54-1.6q9.09,0,9.09,13.35v26.55H947.3V276.42a19.37,19.37,0,0,1,1.41-7.73,10.86,10.86,0,0,1,3.77-4.85,9.29,9.29,0,0,1,5.29-1.6q9,0,9,13.35v26.55h13.76V272.26q0-11.4-4.75-16.9m65.45,25.52h-36a12.83,12.83,0,0,0,4.7,7.19,13.67,13.67,0,0,0,8.39,2.67,15.09,15.09,0,0,0,12.27-5.8l8.94,8.32a24.91,24.91,0,0,1-9.14,7.06,30.53,30.53,0,0,1-13.05,2.64,27.79,27.79,0,0,1-13.5-3.26,23.77,23.77,0,0,1-9.47-9.37,27.81,27.81,0,0,1-3.47-14,29,29,0,0,1,2-10.7,25.06,25.06,0,0,1,5.32-8.42,23.7,23.7,0,0,1,8.08-5.42,26.29,26.29,0,0,1,10.12-1.95,25.65,25.65,0,0,1,13.19,3.36,23,23,0,0,1,8.89,9.3,28.27,28.27,0,0,1,3.13,13.42,21.77,21.77,0,0,1-.36,4.93m-31.71-16.58a12,12,0,0,0-4.23,6.67h22.64a12.39,12.39,0,0,0-3.9-6.59,10.71,10.71,0,0,0-7.19-2.39,11.8,11.8,0,0,0-7.32,2.31m81-13.22a23.11,23.11,0,0,0-16.63.72,21,21,0,0,0-7.42,5.57h-.16v-6.63h-13.76v51.35h13.76V276.26q0-6.72,3.16-10.37a10.69,10.69,0,0,1,8.5-3.65q5,0,7.45,2.88t2.41,10v27.06h13.76v-30.5a33.76,33.76,0,0,0-1.34-10.06,16.18,16.18,0,0,0-3.87-6.78,16,16,0,0,0-5.86-3.72M1120,298.62Q1124,303,1130.78,303a29.58,29.58,0,0,0,7.7-.82,27.94,27.94,0,0,0,5.91-2.41l-3.55-11a14.21,14.21,0,0,1-6.46,1.8,3.86,3.86,0,0,1-3.47-1.6,9.22,9.22,0,0,1-1.06-5V262.14h14v-11.4h-14V232.46L1116.1,234v16.79H1110v11.4h6.06v23.72q0,8.43,3.92,12.76m29.81-3.21a30.4,30.4,0,0,0,20.8,7.55q9.7,0,14.81-4.41a14.55,14.55,0,0,0,5.11-11.56,17.31,17.31,0,0,0-.31-3.44,12.1,12.1,0,0,0-6-8.21q-2.88-1.84-11.4-5a30.17,30.17,0,0,1-5.88-2.78,3.4,3.4,0,0,1-1.82-2.77,3.2,3.2,0,0,1,1.54-2.85,6.23,6.23,0,0,1,3.49-1,16,16,0,0,1,6.19,1.36,20.68,20.68,0,0,1,6.08,4.08l6.68-10.06a30.81,30.81,0,0,0-8.89-4.93,30.43,30.43,0,0,0-9.91-1.54,22.49,22.49,0,0,0-9.42,1.9,15.76,15.76,0,0,0-6.62,5.42,13.8,13.8,0,0,0-2.44,8.08,17.1,17.1,0,0,0,.56,4.47,12.08,12.08,0,0,0,1.67,3.65,18,18,0,0,0,2.47,2.87,15.57,15.57,0,0,0,3.26,2.34,37.35,37.35,0,0,0,3.72,1.82c1.21.51,2.59,1,4.13,1.54q3.65,1.19,5.47,2a10.76,10.76,0,0,1,2.85,1.67,2.71,2.71,0,0,1,1,2.08,3.6,3.6,0,0,1-1.7,3.08,7.94,7.94,0,0,1-4.62,1.18q-7.8,0-14.22-6l-6.68,9.5m-842.31-280V204a57.38,57.38,0,0,1-57.38,57.38H153.76v52.87a8.62,8.62,0,0,1-8.62,8.62H57.38A57.38,57.38,0,0,1,0,265.5V72.74A57.38,57.38,0,0,1,57.38,15.36ZM489.75,58.89a68.09,68.09,0,0,0-22.06-3.56q-27.78,0-44.09,19.19H423V57.8H384V246.07h20.31A18.73,18.73,0,0,0,423,227.34V187h.58q15.61,18.75,42.94,18.76a71.51,71.51,0,0,0,27.86-5.39,64.7,64.7,0,0,0,22.12-15A68.59,68.59,0,0,0,531,161.59a87.14,87.14,0,0,0,5.2-30.63,89.58,89.58,0,0,0-3.3-24.8,73.52,73.52,0,0,0-9.53-21,70.64,70.64,0,0,0-14.62-16,61.32,61.32,0,0,0-19-10.32m-3.48,100.88q-10.38,11.05-26.85,11.06A38.61,38.61,0,0,1,440.13,166a35,35,0,0,1-13.68-14,42.64,42.64,0,0,1-5-20.82A45.32,45.32,0,0,1,424.28,115a38.82,38.82,0,0,1,7.81-13,35.79,35.79,0,0,1,12-8.52,37.5,37.5,0,0,1,15.34-3.12,35.15,35.15,0,0,1,26.63,11.24q10.62,11.2,10.63,29.52,0,17.56-10.41,28.63Zm210.28-16.59q1-3.63,1-14a80.2,80.2,0,0,0-8.89-38,65.1,65.1,0,0,0-25.17-26.33q-16.31-9.52-37.38-9.53a74.48,74.48,0,0,0-28.62,5.53,67.34,67.34,0,0,0-22.92,15.34,71.2,71.2,0,0,0-15,23.87A82.11,82.11,0,0,0,554,130.39q0,22.25,9.82,39.57a67.41,67.41,0,0,0,26.85,26.54,78.89,78.89,0,0,0,38.25,9.24q21,0,37-7.5a70.4,70.4,0,0,0,25.9-20l-12.9-12a18.46,18.46,0,0,0-22.7-2.15,42.64,42.64,0,0,1-24.49,7q-14-.15-23.77-7.56a36.35,36.35,0,0,1-13.31-20.38h102m-89.83-47a33.43,33.43,0,0,1,20.72-6.5q12.34,0,20.37,6.73t11.05,18.69H594.72q3.35-12.4,12-18.92M865.39,57.8h-39V74.18h-.57q-16.33-18.9-42.94-18.91A65.88,65.88,0,0,0,755.78,61,65,65,0,0,0,734,76.56a72.16,72.16,0,0,0-14.31,24,91.55,91.55,0,0,0,0,61,68.57,68.57,0,0,0,14.52,23.71,64.47,64.47,0,0,0,22.12,15,71.5,71.5,0,0,0,27.85,5.39q27.89,0,43.5-20.08h.69A17.61,17.61,0,0,0,846,203.27h19.44V57.8Zm-48,102h0a34.87,34.87,0,0,1-26.23,11.06q-16.43,0-26.84-11.06t-10.41-28.63q0-18.31,10.68-29.52a35.38,35.38,0,0,1,26.7-11.2,33.67,33.67,0,0,1,26.26,11.64Q828,113.58,828,131.14t-10.62,28.63ZM926.1,196.34a78.16,78.16,0,0,0,38.37,9.42,93.11,93.11,0,0,0,37.6-7.27q16.65-7.22,26.7-18.92l-15-13.21a18.37,18.37,0,0,0-21.57-2.26,44.71,44.71,0,0,1-24,6.51q-17.34,0-28.16-11.19t-10.82-29.1A45.78,45.78,0,0,1,932,114.18a36.59,36.59,0,0,1,7.81-12.67,35.55,35.55,0,0,1,12.3-8.22,41.33,41.33,0,0,1,15.85-3,42.76,42.76,0,0,1,33.89,15.62l26.34-22.7a69.9,69.9,0,0,0-27.33-20.72,85.77,85.77,0,0,0-34.48-7.2q-22.23,0-39.71,9.45a67.84,67.84,0,0,0-27.2,26.62q-9.72,17.33-9.74,39.28t9.67,39.13a67.51,67.51,0,0,0,26.7,26.55M1158.63,58.59h0a72,72,0,0,0-48,1.82,58.17,58.17,0,0,0-21,15H1089V18.73A18.73,18.73,0,0,0,1070.24,0h-20.3V203.27h39V129.52q0-19.22,9-29.18t25-10q14.55,0,21.46,8t6.91,27.32v77.68h39.14V115.84a90.12,90.12,0,0,0-3.9-28.16,43.2,43.2,0,0,0-28-29.09Z"/></svg>